# xmcd
#
# Track frame offsets: 
#        150
#        25648
#        51453
#        75644
#        92935
#        113764
#        142724
#        174404
#        197730
#
# Disc length: 2856 seconds
#
# Revision: 0
# Processed by: cddbd v1.5.2PL0 Copyright (c) Steve Scherf et al.
# Submitted via: ExactAudioCopyFreeDBPlugin 1.0
#
DISCID=6c0b2609
DTITLE=Pepe Ahlqvist - Ennen
DYEAR=2018
DGENRE=Blues
TTITLE0=Tuulinen Maa
TTITLE1=Uusikuu
TTITLE2=Täällä Heilutaan
TTITLE3=Yolkotellen
TTITLE4=Pitkä Tie
TTITLE5=Myötätuuleen Tuulta Vastaan
TTITLE6=Kissa
TTITLE7=Kahden Koivun Alla
TTITLE8=Hauta
EXTD=
EXTT0=
EXTT1=
EXTT2=
EXTT3=
EXTT4=
EXTT5=
EXTT6=
EXTT7=
EXTT8=
PLAYORDER=
